<svg xmlns="http://www.w3.org/2000/svg" width="300" height="55.1" viewBox="0 0 300 55.1"><title>Artboard 1</title><path d="M177.4,32.9l10.2-4.2c-.5-1.5-2.2-2.4-4.2-2.4a6.2,6.2,0,0,0-6,6.6m12,4.1,3.9,2.6a11.4,11.4,0,0,1-9.5,5.1,11,11,0,0,1-11.2-11.4c0-6.8,4.7-11.5,10.6-11.5s8.8,4.8,9.8,7.3l.5,1.3-15.3,6.3a5.9,5.9,0,0,0,5.6,3.5,6.6,6.6,0,0,0,5.6-3.2m-24.8,7h5.1V10.4h-5.1Zm-8.1-10.7c0-4-2.7-7-6.2-7s-6.3,3-6.3,7,2.9,6.9,6.3,6.9S156.5,37.3,156.5,33.3Zm4.4-10.8V43c0,8.5-5,11.9-10.9,11.9a10.8,10.8,0,0,1-10.1-6.7l4.3-1.8a6.4,6.4,0,0,0,5.8,4c3.8,0,6.1-2.3,6.1-6.7V42.1h-.2a7.7,7.7,0,0,1-6,2.6A11.3,11.3,0,0,1,139,33.3c0-6.4,5.2-11.5,10.9-11.5a7.6,7.6,0,0,1,6,2.6h.2V22.5ZM106.1,33.3c0-4.2-2.9-7-6.3-7s-6.4,2.9-6.4,7a6.6,6.6,0,0,0,6.4,6.9c3.4,0,6.3-2.9,6.3-6.9m4.9,0a11.3,11.3,0,1,1-22.5,0,11.3,11.3,0,1,1,22.5,0m20.3,0c0-4.2-2.9-7-6.3-7s-6.3,2.9-6.3,7,2.9,6.9,6.3,6.9,6.3-2.9,6.3-6.9m5,0a11.3,11.3,0,1,1-22.6,0,11.3,11.3,0,1,1,22.6,0M69.2,44.7a18,18,0,0,1-18-17.8,18,18,0,0,1,18-17.7,16.9,16.9,0,0,1,12.2,4.9L78,17.5a12.7,12.7,0,0,0-21.5,9.4A12.7,12.7,0,0,0,69.2,39.8a12,12,0,0,0,9-3.5,9.8,9.8,0,0,0,2.6-6.1H69.2V25.3H85.5a14.8,14.8,0,0,1,.3,3.1c0,3.6-1,8.1-4.2,11.3s-7.1,5-12.4,5" style="fill:#5f6368;fill-rule:evenodd"/><path d="M205.4,43.7V13.9h3.8L219.6,32h.1l10.4-18.1h3.8V43.7h-3.8V26l.2-5h-.2l-9.3,16.3h-2.3L209.2,21H209l.2,5V43.7Z" style="fill:#63666a"/><path d="M245.7,44.3a8,8,0,0,1-5.4-1.8,6.2,6.2,0,0,1-2.2-5,6,6,0,0,1,2.6-5.2,10,10,0,0,1,6.3-1.9,11.6,11.6,0,0,1,5.6,1.2v-.5a4.4,4.4,0,0,0-1.6-3.6,5.6,5.6,0,0,0-3.8-1.4,6.1,6.1,0,0,0-3,.8,3.6,3.6,0,0,0-1.8,2.2l-3.5-1.5a7.4,7.4,0,0,1,2.8-3.4,8.6,8.6,0,0,1,5.5-1.6,9.7,9.7,0,0,1,6.5,2.3c1.7,1.5,2.5,3.7,2.5,6.5V43.7h-3.6V40.8h-.2a7.4,7.4,0,0,1-6.7,3.5Zm.6-3.5a5.9,5.9,0,0,0,4.3-1.7,5.6,5.6,0,0,0,2-4.2,7.5,7.5,0,0,0-4.9-1.3,6.4,6.4,0,0,0-4.2,1.2,3.7,3.7,0,0,0-1.4,2.8,2.7,2.7,0,0,0,1.3,2.4,4.7,4.7,0,0,0,2.9.8Z" style="fill:#63666a"/><path d="M271.2,44.3a8.2,8.2,0,0,1-4.2-1,6.9,6.9,0,0,1-2.8-2.5H264l.2,2.9v9h-3.8V23.3H264v2.8h.2a7.6,7.6,0,0,1,2.8-2.5,8.2,8.2,0,0,1,4.2-1,9.2,9.2,0,0,1,6.8,3.1,11.2,11.2,0,0,1,2.9,7.8,11,11,0,0,1-2.9,7.7,8.9,8.9,0,0,1-6.8,3.1Zm-.7-3.5a5.8,5.8,0,0,0,4.6-2,7.2,7.2,0,0,0,1.9-5.3,7.4,7.4,0,0,0-1.9-5.4,6.1,6.1,0,0,0-4.6-2,6.3,6.3,0,0,0-4.6,2,7.7,7.7,0,0,0-1.9,5.4,7.6,7.6,0,0,0,1.9,5.3,6.1,6.1,0,0,0,4.6,2Z" style="fill:#63666a"/><path d="M292,44.3a9.4,9.4,0,0,1-5.7-1.6,8.8,8.8,0,0,1-3.2-4.2l3.4-1.4a5.5,5.5,0,0,0,5.5,3.8,4.3,4.3,0,0,0,2.9-.8,2.3,2.3,0,0,0,1.2-2c0-1.4-1-2.3-2.8-2.7l-4.1-1a10.9,10.9,0,0,1-3.7-1.9,4.6,4.6,0,0,1-1.8-3.8,5.1,5.1,0,0,1,2.4-4.4,9.8,9.8,0,0,1,5.7-1.7,9.5,9.5,0,0,1,4.8,1.2,6.9,6.9,0,0,1,3.1,3.6l-3.4,1.3c-.7-1.8-2.3-2.7-4.6-2.7a6.2,6.2,0,0,0-2.9.7,2.2,2.2,0,0,0-1.2,1.9q0,1.8,2.7,2.4l4.1,1a7.1,7.1,0,0,1,4.2,2.3,5.6,5.6,0,0,1,1.4,3.6,5.5,5.5,0,0,1-2.2,4.6,9.1,9.1,0,0,1-5.8,1.8Z" style="fill:#63666a"/><path d="M10.6,40.8a51.2,51.2,0,0,1,4.3,6.4,32.6,32.6,0,0,1,2.4,6c.5,1.4.9,1.9,1.9,1.9s1.5-.8,1.9-1.9a42.9,42.9,0,0,1,2.3-5.9,67.2,67.2,0,0,1,6.4-9.1c.6-.8,4.6-5.5,6.4-9.2a21.9,21.9,0,0,0,2.2-9.7,19.1,19.1,0,0,0-2.2-9L30,12,26.2,22l-.9,1.3-.2.3-.3.3-.4.5-.6.6-3.4,2.8L12,32.6Z" style="fill:#34a853"/><path d="M1.9,28.3c2,4.8,6,8.9,8.7,12.5L24.8,23.9a7.4,7.4,0,0,1-5.6,2.6,7.2,7.2,0,0,1-7.3-7.3,7.9,7.9,0,0,1,1.6-4.7L3.9,17.1Z" style="fill:#fbbc04"/><path d="M25,.9a18.9,18.9,0,0,1,11.2,9.4L24.8,23.9a7.6,7.6,0,0,0,1.7-4.7,7.3,7.3,0,0,0-7.3-7.3,7.8,7.8,0,0,0-5.7,2.6V5.9Z" style="fill:#4285f4"/><path d="M4.5,6.9A18.9,18.9,0,0,1,19.1,0,20,20,0,0,1,25,.9L13.5,14.5H5.4Z" style="fill:#1a73e8"/><path d="M1.9,28.3a21.5,21.5,0,0,1-1.9-9A19.2,19.2,0,0,1,4.5,6.9l9,7.6Z" style="fill:#ea4335"/></svg>