<svg xmlns="http://www.w3.org/2000/svg" width="12.2" height="20"><path d="M10.8 10c-.7 0-2 1.3-4.7 1.3S2.1 10 1.4 10A1.3 1.3 0 0 0 0 11.2a1.3 1.3 0 0 0 .8 1.3L4.1 14l-2.9 3.6a2.2 2.2 0 0 0-.5 1.1A1.3 1.3 0 0 0 2 20a1.2 1.2 0 0 0 1-.5L6.1 16l3 3.5a1.2 1.2 0 0 0 1 .5 1.3 1.3 0 0 0 1.3-1.3 2.2 2.2 0 0 0-.5-1.1L8.1 14l3.3-1.5a1.2 1.2 0 0 0 .7-1.7 1.3 1.3 0 0 0-1.3-.8zM6.1 0a4.7 4.7 0 0 0-4.7 4.7A4.7 4.7 0 0 0 6 9.3h.1a4.5 4.5 0 0 0 4.7-4.5A4.7 4.7 0 0 0 6.1 0zm0 7a2.4 2.4 0 0 1-2.5-2.3 2.5 2.5 0 0 1 2.3-2.5 2.4 2.4 0 0 1 2.5 2.3v.2A2.3 2.3 0 0 1 6.1 7z" fill="#fff"/></svg>