<svg xmlns="http://www.w3.org/2000/svg" width="25.1" height="14.3"><path d="M12.2 14.2h1.5a1.1 1.1 0 0 0 .7-.3 1.4 1.4 0 0 0 .2-.7s0-2 .9-2.3 2.1 2 3.4 2.8a1.8 1.8 0 0 0 1.6.5h3.4s1.7-.1.9-1.5a16.8 16.8 0 0 0-2.5-2.9c-2.1-1.9-1.8-1.6.7-5s2.2-3.3 2-3.8-1.4-.4-1.4-.4h-4.2l-.3.4a20.9 20.9 0 0 1-1.4 3c-1.7 2.8-2.4 3-2.6 2.8a6.9 6.9 0 0 1-.5-2.6c0-2.7.4-3.9-.8-4.2H12a8 8 0 0 0-3.1.3c-.4.2-.8.7-.6.7a1.4 1.4 0 0 1 1.2.6 5.1 5.1 0 0 1 .3 1.7s.2 3.2-.5 3.6S8.1 6.6 6.6 4 5.3 1.3 5.3 1.3L5 .8 4.4.6H.8a.9.9 0 0 0-.7.3c-.2.2 0 .6 0 .6S2.9 8 6 11.3a8.3 8.3 0 0 0 6.2 2.9z" fill="#fff" fill-rule="evenodd"/></svg>