<svg xmlns="http://www.w3.org/2000/svg" width="22.4" height="22.4"><path d="M0 22.4l1.6-5.6A11 11 0 0 1 0 11.2a11.2 11.2 0 1 1 11.2 11.2 10.8 10.8 0 0 1-5.5-1.5zm6-3.5l.4.2a9 9 0 0 0 4.8 1.4 9.3 9.3 0 1 0-9.3-9.3 8.9 8.9 0 0 0 1.5 5l.2.3-.9 3.2 3.3-.8z" fill="#fff"/><path d="M8.1 6h-.8l-.6.2a4.5 4.5 0 0 0-1.1 1.6 5.5 5.5 0 0 0 1.2 4 11.7 11.7 0 0 0 6.3 4.6 3.4 3.4 0 0 0 2.7-.3 3.1 3.1 0 0 0 1-1.5V14a.8.8 0 0 0-.2-.4l-2.5-1.1c-.1-.1-.3 0-.4.1l-1 1.2c-.1.1-.2.2-.3.1a7 7 0 0 1-4.1-3.5.4.4 0 0 1 .1-.3l.9-1a.3.3 0 0 0 0-.4l-1-2.5z" fill="#fff"/></svg>