<svg xmlns="http://www.w3.org/2000/svg" width="119.8" height="29.8" viewBox="0 0 119.8 29.8"><title>Artboard 1</title><path d="M12.1,0A11.8,11.8,0,0,0,0,11.5V12c0,3.3,1.2,6.1,4.1,8.9S8.4,24.1,9.9,26a7.1,7.1,0,0,1,1.3,3.1c.2.5.4.8.9.8s.7-.3.8-.8A8.7,8.7,0,0,1,14.3,26c1.5-2,3.8-3.3,5.7-5.1s4.2-5.6,4.2-8.9A11.8,11.8,0,0,0,12.6,0Z" style="fill:#f43"/><path d="M7.8,12.1a4.1,4.1,0,0,0,4.1,4.2h.2a4,4,0,0,0,4.2-4v-.2a4.1,4.1,0,0,0-4.1-4.2h-.1a4.2,4.2,0,0,0-4.3,4Z" style="fill:#fff"/><path d="M39.2,15h-.9c-1.4,0-2.6-.8-2.6-3.1S37,8.6,38.3,8.6h.9Zm0,1.3v5.6h1.6V7.3H38.4A4.2,4.2,0,0,0,34,11.4v.5c0,2.2.9,3.4,2.2,4l-2.8,6h1.9l2.5-5.6Zm22-3.5c1,0,1.2,1.3,1.2,3H59.7C59.8,14,60.2,12.8,61.2,12.8Zm-6.7,7.8H51.7a21.2,21.2,0,0,0,1-7.5v-.2h1.8Zm21.4,1.5a3.5,3.5,0,0,0,2.2-.8l-.3-1.2a3.1,3.1,0,0,1-1.8.7c-1.4,0-2-1.5-2-4.1s.8-3.9,2-3.9a2.8,2.8,0,0,1,1.7.7L78,12a2.9,2.9,0,0,0-2-.5c-2.5,0-3.8,2-3.8,5.3S73.7,22.1,75.9,22.1Zm-5.6-.2h1.8l-3-5.4,2.6-4.9H70l-2.6,4.8V11.6H65.8V21.9h1.7V16.8ZM46.9,11.6V16H44.5V11.6H42.8V21.9h1.7V17.3h2.4v4.6h1.6V11.6Zm17.3,9.7L63.8,20a4,4,0,0,1-2.1.7c-1.3,0-2-1.2-2-3.6h4.4v-.8c0-3.5-1.1-4.8-2.9-4.8S58,13.9,58,17.2s1.3,4.9,3.5,4.9A5,5,0,0,0,64.2,21.3ZM57,20.6h-.8v-9h-5v.9c0,2.8-.1,5.9-1.1,8.1h-.6V24H51V22h4.6v2H57Zm31.7,1.3h1.2l-4.7-7.8,4.3-6.8h-1l-4.4,6.8V7.3H83V21.9h1.1V14.2Zm6.7,0h.9a11.1,11.1,0,0,1-.2-1.9V14.4c0-2-1-3-2.7-3a3.2,3.2,0,0,0-2.5,1l.2.9a3,3,0,0,1,2.3-1.1c1.1,0,1.7.7,1.7,2.3v1.3H94c-2.3,0-3.6,1.2-3.6,3.4s1,3,2.5,3a2.8,2.8,0,0,0,2.3-1.6A5.9,5.9,0,0,0,95.4,21.9Zm-2.3-.5c-1,0-1.7-.9-1.7-2.3A2.3,2.3,0,0,1,94,16.5h1.1v2.8C94.8,20.5,94.1,21.4,93.1,21.4Zm8.1.7c2,0,3.3-1.8,3.3-5.6s-1-5.1-2.8-5.1a2.8,2.8,0,0,0-2.4,1.9V11.6h-.9V25.1h1V21.2A2.5,2.5,0,0,0,101.2,22.1Zm.1-.7a2.1,2.1,0,0,1-2-1.3V14.3a2.6,2.6,0,0,1,2.2-2c1.2,0,2,1.5,2,4.3S102.6,21.4,101.3,21.4Zm9.7-9v-.8h-5.9v.8h2.5v9.5h1V12.4Zm3.3,3.8a2.3,2.3,0,0,1,2.4,1.9v.6a2.3,2.3,0,0,1-2,2.5h-1.2v-5Zm5.5-4.6h-1V21.9h1Zm-7.3,10.3h1.7a3,3,0,0,0,3.4-2.7.4.4,0,0,0,0-.5,3,3,0,0,0-3.3-3.3h-.8V11.6h-1Z"/></svg>